<?xml version="1.0" encoding="utf-8"?>
<!-- Generator: Adobe Illustrator 16.0.3, SVG Export Plug-In . SVG Version: 6.00 Build 0)  -->
<!DOCTYPE svg PUBLIC "-//W3C//DTD SVG 1.1//EN" "http://www.w3.org/Graphics/SVG/1.1/DTD/svg11.dtd">
<svg version="1.1" xmlns="http://www.w3.org/2000/svg" xmlns:xlink="http://www.w3.org/1999/xlink" x="0px" y="0px" width="1200px"
	 height="1200px" viewBox="0 0 1200 1200" enable-background="new 0 0 1200 1200" xml:space="preserve">
<g id="Capa_1">
	<g>
		<defs>
			<rect id="SVGID_1_" x="4.203" y="-16.918" width="1200" height="1200"/>
		</defs>
		<clipPath id="SVGID_2_">
			<use xlink:href="#SVGID_1_"  overflow="visible"/>
		</clipPath>
		<g clip-path="url(#SVGID_2_)">
			<defs>
				<rect id="SVGID_3_" x="4.203" y="-16.918" width="1200" height="1200"/>
			</defs>
			<clipPath id="SVGID_4_">
				<use xlink:href="#SVGID_3_"  overflow="visible"/>
			</clipPath>
			<path clip-path="url(#SVGID_4_)" fill-rule="evenodd" clip-rule="evenodd" fill="#8DC5E0" d="M580.318,549.143
				c0-6.792,10.695-12.298,23.888-12.298c13.192,0,23.887,5.506,23.887,12.298s-10.694,12.298-23.887,12.298
				C591.013,561.441,580.318,555.935,580.318,549.143"/>
			<polygon clip-path="url(#SVGID_4_)" fill-rule="evenodd" clip-rule="evenodd" fill="#777777" points="542.991,834.975 
				550.234,858.319 580.318,851.449 577.369,821.769 			"/>
			<path clip-path="url(#SVGID_4_)" fill-rule="evenodd" clip-rule="evenodd" fill="#AADAF1" d="M463.144,551.893h457.485
				c2.441,0,4.42,1.979,4.42,4.42v8.028c0,2.441-1.979,4.42-4.42,4.42H463.144c-2.441,0-4.42-1.979-4.42-4.42v-8.028
				C458.724,553.872,460.703,551.893,463.144,551.893"/>
			
				<line clip-path="url(#SVGID_4_)" fill="none" stroke="#AADAF1" stroke-width="2" stroke-linecap="round" stroke-linejoin="round" x1="525.423" y1="569.139" x2="432.918" y2="852.959"/>
			
				<line clip-path="url(#SVGID_4_)" fill="none" stroke="#AADAF1" stroke-width="2" stroke-linecap="round" stroke-linejoin="round" x1="600.534" y1="569.139" x2="508.029" y2="852.959"/>
			
				<line clip-path="url(#SVGID_4_)" fill="none" stroke="#AADAF1" stroke-width="2" stroke-linecap="round" stroke-linejoin="round" x1="600.534" y1="568.139" x2="693.039" y2="851.959"/>
			
				<line clip-path="url(#SVGID_4_)" fill="none" stroke="#AADAF1" stroke-width="2" stroke-linecap="round" stroke-linejoin="round" x1="525.423" y1="569.139" x2="617.928" y2="852.959"/>
			<polygon clip-path="url(#SVGID_4_)" fill-rule="evenodd" clip-rule="evenodd" fill="#777777" points="442.66,806.494 
				432.918,828.46 459.846,840.045 471.839,817.803 			"/>
			<path clip-path="url(#SVGID_4_)" fill-rule="evenodd" clip-rule="evenodd" fill="#6A3416" d="M432.3,826.464l28.495,12.338
				c0,0,35.522,33.287,51.911,41.397c-0.048,7.39-0.959,10.819-6.68,12.93c-2.544,0.939-48.449-17.44-48.449-17.44l-7.7-8.26
				l-29.696-13.66L432.3,826.464z"/>
			
				<circle clip-path="url(#SVGID_4_)" fill="none" stroke="#FFFFFF" stroke-width="2" stroke-linecap="round" stroke-linejoin="round" cx="453.135" cy="820.668" r="3.633"/>
			
				<circle clip-path="url(#SVGID_4_)" fill="none" stroke="#FFFFFF" stroke-width="2" stroke-linecap="round" stroke-linejoin="round" cx="439.41" cy="825.402" r="3.633"/>
			
				<circle clip-path="url(#SVGID_4_)" fill="none" stroke="#FFFFFF" stroke-width="2" stroke-linecap="round" stroke-linejoin="round" cx="458.227" cy="831.789" r="3.633"/>
			<path clip-path="url(#SVGID_4_)" fill-rule="evenodd" clip-rule="evenodd" fill="#3C1B09" d="M417.933,848.519l29.072,12.931
				c1.587,0.71,2.315,2.54,1.626,4.09l-2.54,5.709c-0.688,1.541-2.533,2.23-4.12,1.521l-29.072-12.93
				c-1.587-0.7-2.315-2.53-1.626-4.08l2.539-5.71C414.501,848.498,416.346,847.818,417.933,848.519"/>
			<path clip-path="url(#SVGID_4_)" fill-rule="evenodd" clip-rule="evenodd" fill="#162638" d="M368.765,595.936
				c66.209-18.646,161.197-8.32,181.685,20.133c7.318,10.163,4.837,26.06,2.97,32.05c-1.868,5.99-79.324,172.223-79.324,172.223
				l-34.739-13.218l34.136-134.968C473.493,672.155,360.541,598.252,368.765,595.936"/>
			
				<line clip-path="url(#SVGID_4_)" fill="none" stroke="#8D8D8D" stroke-width="2" stroke-linecap="round" stroke-linejoin="round" x1="451.691" y1="811.816" x2="491.674" y2="682.907"/>
			
				<line clip-path="url(#SVGID_4_)" fill="none" stroke="#8D8D8D" stroke-width="2" stroke-linecap="round" stroke-linejoin="round" x1="442.855" y1="793.29" x2="480.135" y2="807.341"/>
			<path clip-path="url(#SVGID_4_)" fill-rule="evenodd" clip-rule="evenodd" fill="#6A3416" d="M549.635,856.149l29.859-8.521
				c0,0,48.575,3.231,66.389-0.891c4.652,5.752,6.121,8.981,3.033,14.241c-1.373,2.33-48.527,17.221-48.527,17.221l-11.189-1.511
				l-31.626,8.261L549.635,856.149z"/>
			<path clip-path="url(#SVGID_4_)" fill-rule="evenodd" clip-rule="evenodd" fill="#3C1B09" d="M552.506,882.319l30.68-8.431
				c1.675-0.46,3.397,0.49,3.846,2.12l1.656,6.03c0.449,1.64-0.545,3.33-2.219,3.79l-30.681,8.43c-1.675,0.46-3.396-0.49-3.845-2.12
				l-1.656-6.029C549.838,884.479,550.831,882.779,552.506,882.319"/>
			
				<circle clip-path="url(#SVGID_4_)" fill="none" stroke="#FFFFFF" stroke-width="2" stroke-linecap="round" stroke-linejoin="round" cx="566.611" cy="845.695" r="3.633"/>
			
				<circle clip-path="url(#SVGID_4_)" fill="none" stroke="#FFFFFF" stroke-width="2" stroke-linecap="round" stroke-linejoin="round" cx="573.119" cy="833.949" r="3.633"/>
			
				<circle clip-path="url(#SVGID_4_)" fill="none" stroke="#FFFFFF" stroke-width="2" stroke-linecap="round" stroke-linejoin="round" cx="553.268" cy="843.104" r="3.633"/>
			<path clip-path="url(#SVGID_4_)" fill-rule="evenodd" clip-rule="evenodd" fill="#AADAF1" d="M314.507,677.587h151.8
				c10.841,0,19.63,8.789,19.63,19.63c0,10.842-8.789,19.631-19.63,19.631h-151.8c-10.841,0-19.63-8.789-19.63-19.631
				C294.877,686.376,303.666,677.587,314.507,677.587"/>
			<path clip-path="url(#SVGID_4_)" fill-rule="evenodd" clip-rule="evenodd" fill="#AADAF1" d="M384.045,703.438h12.724
				c2.099,0,3.801,1.702,3.801,3.802v140.6c0,2.099-1.702,3.799-3.801,3.799h-12.724c-2.099,0-3.801-1.7-3.801-3.799v-140.6
				C380.244,705.141,381.946,703.438,384.045,703.438"/>
			<path clip-path="url(#SVGID_4_)" fill-rule="evenodd" clip-rule="evenodd" fill="#AADAF1" d="M378.929,806.494h22.956
				c3.457,0,6.26,2.803,6.26,6.26V846.7c0,3.459-2.803,6.259-6.26,6.259h-22.956c-3.457,0-6.26-2.8-6.26-6.259v-33.946
				C372.669,809.297,375.472,806.494,378.929,806.494"/>
			
				<path clip-path="url(#SVGID_4_)" fill="none" stroke="#AADAF1" stroke-width="2" stroke-linecap="round" stroke-linejoin="round" d="
				M314.195,877.129v-6.63c0-9.68,7.854-17.54,17.543-17.54h58.669"/>
			
				<path clip-path="url(#SVGID_4_)" fill="none" stroke="#AADAF1" stroke-width="2" stroke-linecap="round" stroke-linejoin="round" d="
				M466.444,877.129v-6.63c0-9.68-7.855-17.54-17.543-17.54h-58.67"/>
			
				<path clip-path="url(#SVGID_4_)" fill="none" stroke="#AADAF1" stroke-width="2" stroke-linecap="round" stroke-linejoin="round" d="
				M361.655,877.129v-8c0-8.93,4.651-16.17,10.387-16.17h36.73c5.736,0,10.387,7.24,10.387,16.17v8"/>
			
				<path clip-path="url(#SVGID_4_)" fill="none" stroke="#AADAF1" stroke-width="2" stroke-linecap="round" stroke-linejoin="round" d="
				M304.583,886.749c0-5.311,4.303-9.62,9.612-9.62c5.308,0,9.611,4.31,9.611,9.62c0,5.3-4.303,9.61-9.611,9.61
				C308.886,896.359,304.583,892.049,304.583,886.749z"/>
			
				<path clip-path="url(#SVGID_4_)" fill="none" stroke="#AADAF1" stroke-width="2" stroke-linecap="round" stroke-linejoin="round" d="
				M352.044,886.749c0-5.311,4.303-9.62,9.611-9.62s9.612,4.31,9.612,9.62c0,5.3-4.304,9.61-9.612,9.61
				S352.044,892.049,352.044,886.749z"/>
			
				<path clip-path="url(#SVGID_4_)" fill="none" stroke="#AADAF1" stroke-width="2" stroke-linecap="round" stroke-linejoin="round" d="
				M419.159,877.129c5.308,0,9.611,4.311,9.611,9.62c0,5.3-4.303,9.61-9.611,9.61s-9.611-4.311-9.611-9.61
				C409.548,881.439,413.851,877.129,419.159,877.129"/>
			
				<path clip-path="url(#SVGID_4_)" fill="none" stroke="#AADAF1" stroke-width="2" stroke-linecap="round" stroke-linejoin="round" d="
				M456.833,886.749c0-5.311,4.303-9.62,9.611-9.62c5.308,0,9.611,4.31,9.611,9.62c0,5.3-4.303,9.61-9.611,9.61
				C461.136,896.359,456.833,892.049,456.833,886.749z"/>
			<path clip-path="url(#SVGID_4_)" fill-rule="evenodd" clip-rule="evenodd" fill="#20344C" d="M320.2,556.828
				c-60.573,126.518,61.69,129.928,104.577,129.295c42.887-0.634,54.192-3.861,65.797-6.662
				c3.71,11.234,48.18,156.795,48.18,156.795l39.055-11.803c0,0-29.857-184.912-36.593-197.406
				c-18.514-34.338-128.053-36.199-141.851-35.367C385.566,592.512,327.879,540.789,320.2,556.828"/>
			
				<path clip-path="url(#SVGID_4_)" fill="none" stroke="#8D8D8D" stroke-width="2" stroke-linecap="round" stroke-linejoin="round" d="
				M323.98,574.116c-41.493,103.551,136.452,97.313,175.365,85.453c5.826,16.646,54.041,171.414,54.041,171.414"/>
			
				<path clip-path="url(#SVGID_4_)" fill="none" stroke="#8D8D8D" stroke-width="2" stroke-linecap="round" stroke-linejoin="round" d="
				M548.984,659.761c-25.334-5.182-44.513-27.262-45.248-53.95"/>
			
				<path clip-path="url(#SVGID_4_)" fill="none" stroke="#8D8D8D" stroke-width="2" stroke-linecap="round" stroke-linejoin="round" d="
				M471.944,683.261c8.143-1.166,13.356-2.526,18.63-3.8c1.539,4.659,10.088,32.421,19.568,63.323"/>
			
				<path clip-path="url(#SVGID_4_)" fill="none" stroke="#8D8D8D" stroke-width="2" stroke-linecap="round" stroke-linejoin="round" d="
				M548.7,657.74c-3.266-16.274-5.964-27.874-7.484-30.693c-17.396-32.264-115.157-35.855-138.346-35.481"/>
			
				<line clip-path="url(#SVGID_4_)" fill="none" stroke="#8D8D8D" stroke-width="2" stroke-linecap="round" stroke-linejoin="round" x1="575.933" y1="813.013" x2="535.393" y2="825.27"/>
			<path clip-path="url(#SVGID_4_)" fill-rule="evenodd" clip-rule="evenodd" fill="#6A3416" d="M393.547,360.64
				c0-11.44,9.274-20.714,20.713-20.714c11.44,0,20.714,9.274,20.714,20.714s-9.274,20.713-20.714,20.713
				C402.821,381.353,393.547,372.08,393.547,360.64"/>
			<path clip-path="url(#SVGID_4_)" fill-rule="evenodd" clip-rule="evenodd" fill="#FCCAA7" d="M589.362,531.203
				c3.403-2.793,12.647-9.631,15.605-9.59c2.959,0.042,11.921,8.469,12.119,10.678c0.197,2.21-2.65,5.695-4.353,5.942
				c-1.704,0.247-7.167-5.029-8.366-4.521c-1.199,0.507-3.842,3.269-4.611,4.509C598.986,539.462,585.958,533.996,589.362,531.203"
				/>
			<path clip-path="url(#SVGID_4_)" fill-rule="evenodd" clip-rule="evenodd" fill="#FCCAA7" d="M467.153,476.309l20.468,20.876
				c0,0,15.474-33.269,26.207-50.808c-2.179-3.137-5.973-15.648-5.507-18.011c0.465-2.364,11.746-24.531,14.467-23.241
				c2.722,1.289,5.264,5.622,3.868,9.991c1.611-5.766,4.333-13.752,6.732-14.539c2.399-0.788,7.449,0.25,7.234,4.297
				c1.146-2.65,3.171-4.51,5.498-4.612c2.002-0.088,6.078,1.63,6.352,4.149c0.341,3.143-4.154,10.666-4.703,11.735
				c2.097-2.863,2.076-3.027,3.343-2.985c2.529,0.085,6.805,3.848,4.72,9.277c-2.085,5.429-12.423,30.771-20.421,31.854
				c0.371,4.913-23.474,73.565-23.474,73.565l-36.117-1.44l-26.317-34.804L467.153,476.309z"/>
			<path clip-path="url(#SVGID_4_)" fill-rule="evenodd" clip-rule="evenodd" fill="#8EBF91" d="M396,400.875
				c-66.432,0.085-88.637,155.96-81.688,166.688c5.081,7.844,65.343,30.895,86.031,23.812c7.297-2.498,26.261-41.446,37-80.75
				c11.455-9.396,33.12-27.194,36.657-30.625c-0.972-7.535-18.413-37.872-36.438-51.312
				C431.292,414.462,419.726,400.875,396,400.875"/>
			<path clip-path="url(#SVGID_4_)" fill-rule="evenodd" clip-rule="evenodd" fill="#FCCAA7" d="M413.181,506.817
				c0,0,31.704,40.014,40.041,43.249c8.336,3.235,98.421,2.215,104.956,1.442c6.536-0.774,5.379,4.248,11.327,4.573
				c6.163,0.337,9.716-5.109,10.55-7.859c3.758,4.178,10.388,10.609,14.74,8.361c3.083-1.593,3.125-3.031,1.024-5.207
				c2.988,1.734,8.42,4.273,10.608,2.565c3.517-2.743,3.847-5.303,2.659-7.434c-3.674-6.592-15.493-15.916-18.301-17.022
				c-3.238-1.275-13.11,2.242-17.854,2.534c-21.53,1.326-75.82-12.061-93.639-12.867c-2.619-5.026-29.763-37.831-31.861-41.111
				C440.008,484.425,413.181,506.817,413.181,506.817"/>
			<path clip-path="url(#SVGID_4_)" fill-rule="evenodd" clip-rule="evenodd" fill="#FCCAA7" d="M404.325,368.805
				c0-17.372,14.082-31.454,31.453-31.454c17.372,0,31.454,14.082,31.454,31.454c0,17.371-14.082,31.453-31.454,31.453
				C418.407,400.258,404.325,386.176,404.325,368.805"/>
			<path clip-path="url(#SVGID_4_)" fill-rule="evenodd" clip-rule="evenodd" fill="#FCCAA7" d="M408.549,361.917
				c0.132,4.893-10.108,35.814-14.147,41.73c2.04,4.734,21.567,16.59,30.559,14.062c1.021-5.994,4.351-18.064,6.418-20.739
				C433.447,394.294,408.416,357.024,408.549,361.917"/>
			<path clip-path="url(#SVGID_4_)" fill-rule="evenodd" clip-rule="evenodd" fill="#6A3416" d="M444.5,302.5
				c-6.3,0-11.889,2.875-15.688,7.313c-2.538-0.924-5.236-1.5-8.094-1.5c-13.136,0-23.781,10.645-23.781,23.781
				c0,2.331,0.437,4.527,1.063,6.656c-2.729,2.542-4.438,6.114-4.438,10.094c0,6.794,4.939,12.473,11.5,13.719
				c0.156-0.768,0.151-1.306,0.406-2.188c0.679-2.342,10.857-6.613,11.969-5.844c1.089,0.754,2.349,1.239,3,1.313
				c0.093,0.012,0.185,0.031,0.281,0.031c8.926,0,16.619-4.977,20.688-12.25c1.021,0.155,2.03,0.313,3.094,0.313
				c0,11.44,9.278,20.719,20.718,20.719c11.44-0.001,20.719-9.279,20.719-20.719s-9.279-20.719-20.719-20.719
				C465.218,311.779,455.939,302.5,444.5,302.5"/>
			<path clip-path="url(#SVGID_4_)" fill-rule="evenodd" clip-rule="evenodd" fill="#FCCAA7" d="M395.992,349.743
				c0-6.727,5.453-12.18,12.18-12.18s12.18,5.453,12.18,12.18s-5.453,12.18-12.18,12.18S395.992,356.47,395.992,349.743"/>
			
				<path clip-path="url(#SVGID_4_)" fill="none" stroke="#737999" stroke-width="2" stroke-linecap="round" stroke-linejoin="round" d="
				M333.461,561.441c-1.309-19.345,17.163-91.197,30.981-112.578"/>
			
				<path clip-path="url(#SVGID_4_)" fill="none" stroke="#737999" stroke-width="2" stroke-linecap="round" stroke-linejoin="round" d="
				M374.404,465.879c3.227,6.644,19.155,36.103,32.651,46.491c5.153-4.883,42.271-36.517,42.271-36.517
				c-4.739-8.806-27.533-36.426-34.917-43.192"/>
			
				<line clip-path="url(#SVGID_4_)" fill="none" stroke="#737999" stroke-width="2" stroke-linecap="round" stroke-linejoin="round" x1="400.066" y1="505.65" x2="444.683" y2="468.774"/>
			
				<path clip-path="url(#SVGID_4_)" fill="none" stroke="#737999" stroke-width="2" stroke-linecap="round" stroke-linejoin="round" d="
				M432.423,419.532c-0.309,0.98-0.764,1.903-1.374,2.755c-5.298,7.398-20.238,6.594-33.368-1.797"/>
			
				<path clip-path="url(#SVGID_4_)" fill="none" stroke="#737999" stroke-width="2" stroke-linecap="round" stroke-linejoin="round" d="
				M437.651,428.755c2.53,6.583,5.986,21.93,4.531,36.62"/>
			
				<line clip-path="url(#SVGID_4_)" fill="none" stroke="#737999" stroke-width="2" stroke-linecap="round" stroke-linejoin="round" x1="454.082" y1="486.585" x2="470.91" y2="471.676"/>
			
				<path clip-path="url(#SVGID_4_)" fill="none" stroke="#737999" stroke-width="2" stroke-linecap="round" stroke-linejoin="round" d="
				M380.886,547.915c5.552-0.868,35.847-0.243,30.248,1.647c-5.598,1.891-16.081,3.25-11.403,4.358
				c4.678,1.107,12.121,2.315,13.606,2.335"/>
			
				<path clip-path="url(#SVGID_4_)" fill="none" stroke="#B5545C" stroke-width="2" stroke-linecap="round" stroke-linejoin="round" d="
				M452.452,369.632c-0.304,2.778,0.305,8.981,2.398,11.721"/>
			<path clip-path="url(#SVGID_4_)" fill-rule="evenodd" clip-rule="evenodd" fill="#B5545C" d="M435.595,365.97
				c1.035-2.37,2.999-3.799,4.388-3.193c1.389,0.607,1.676,3.019,0.641,5.388c-1.035,2.37-2.999,3.799-4.388,3.193
				C434.848,370.752,434.561,368.339,435.595,365.97"/>
			<path clip-path="url(#SVGID_4_)" fill-rule="evenodd" clip-rule="evenodd" fill="#B5545C" d="M459.345,371.363
				c1.035-2.37,2.999-3.799,4.388-3.193c1.388,0.607,1.675,3.019,0.641,5.389c-1.035,2.369-2.999,3.798-4.388,3.192
				C458.597,376.145,458.31,373.732,459.345,371.363"/>
			
				<path clip-path="url(#SVGID_4_)" fill="none" stroke="#B5545C" stroke-width="2" stroke-linecap="round" stroke-linejoin="round" d="
				M435.481,388.768c-3.858-1.215-6.728-4.658-7.102-8.82"/>
			
				<path clip-path="url(#SVGID_4_)" fill="none" stroke="#B5545C" stroke-width="2" stroke-linecap="round" stroke-linejoin="round" d="
				M429.983,399.725c-8.581-1.598-15.936-6.679-20.544-13.721"/>
			
				<path clip-path="url(#SVGID_4_)" fill="none" stroke="#B5545C" stroke-width="2" stroke-linecap="round" stroke-linejoin="round" d="
				M412.42,361.161c-1.323,0.493-2.754,0.762-4.248,0.762c-1.14,0-2.243-0.157-3.29-0.45"/>
			
				<path clip-path="url(#SVGID_4_)" fill="none" stroke="#B5545C" stroke-width="2" stroke-linecap="round" stroke-linejoin="round" d="
				M405.816,357.091c-3.024-0.828-5.246-3.596-5.246-6.882c0-3.941,3.195-7.136,7.136-7.136c3.941,0,7.136,3.195,7.136,7.136"/>
			
				<polyline clip-path="url(#SVGID_4_)" fill="none" stroke="#B5545C" stroke-width="2" stroke-linecap="round" stroke-linejoin="round" points="
				512.848,524.246 479.574,519.166 458.931,492.647 			"/>
			
				<path clip-path="url(#SVGID_4_)" fill="none" stroke="#B5545C" stroke-width="2" stroke-linecap="round" stroke-linejoin="round" d="
				M526.136,443.506c1.244-2.695,4.683-8.616,3.489-11.199c-1.193-2.582-9.424-6.066-8.416-8.535
				c1.008-2.468,5.589-9.155,5.589-9.155"/>
			
				<line clip-path="url(#SVGID_4_)" fill="none" stroke="#B5545C" stroke-width="2" stroke-linecap="round" stroke-linejoin="round" x1="540.622" y1="404.874" x2="534.309" y2="417.775"/>
			
				<line clip-path="url(#SVGID_4_)" fill="none" stroke="#B5545C" stroke-width="2" stroke-linecap="round" stroke-linejoin="round" x1="548.117" y1="416.16" x2="542.991" y2="423.441"/>
			
				<line clip-path="url(#SVGID_4_)" fill="none" stroke="#B5545C" stroke-width="2" stroke-linecap="round" stroke-linejoin="round" x1="591.467" y1="529.816" x2="600.624" y2="536.845"/>
			
				<line clip-path="url(#SVGID_4_)" fill="none" stroke="#B5545C" stroke-width="2" stroke-linecap="round" stroke-linejoin="round" x1="595.715" y1="550.99" x2="588.878" y2="544.637"/>
			<path clip-path="url(#SVGID_4_)" fill-rule="evenodd" clip-rule="evenodd" fill="#FF3274" d="M554.623,306.132h11.531
				c0.547,0,0.991,0.637,0.991,1.422v7.193c0,0.786-0.444,1.422-0.991,1.422h-11.531c-0.547,0-0.991-0.636-0.991-1.422v-7.193
				C553.632,306.769,554.076,306.132,554.623,306.132"/>
			<path clip-path="url(#SVGID_4_)" fill-rule="evenodd" clip-rule="evenodd" fill="#FF3274" d="M572.137,311.604v4.428
				c0,0.123-0.085,0.172-0.191,0.111l-3.836-2.214l-3.835-2.215c-0.106-0.061-0.106-0.16,0-0.221l3.835-2.215l3.836-2.214
				c0.106-0.061,0.191-0.012,0.191,0.111V311.604z"/>
			
				<circle clip-path="url(#SVGID_4_)" fill="none" stroke="#FF3274" stroke-width="2" stroke-linecap="round" stroke-linejoin="round" cx="562.885" cy="311.151" r="16.996"/>
			
				<path clip-path="url(#SVGID_4_)" fill="none" stroke="#9B9B9B" stroke-width="2" stroke-linecap="round" stroke-linejoin="round" d="
				M323.971,269.957H567.56c13.662,0,24.736,11.075,24.736,24.736V418.77c0,13.661-11.074,24.736-24.736,24.736H323.971
				c-13.661,0-24.736-11.075-24.736-24.736V294.693C299.235,281.032,310.31,269.957,323.971,269.957z"/>
			
				<line clip-path="url(#SVGID_4_)" fill="none" stroke="#9B9B9B" stroke-width="2" stroke-linecap="round" stroke-linejoin="round" x1="590.709" y1="285.83" x2="301.082" y2="285.83"/>
			
				<circle clip-path="url(#SVGID_4_)" fill="none" stroke="#FF3274" stroke-width="2" stroke-linecap="round" stroke-linejoin="round" cx="320.537" cy="278.182" r="3.519"/>
			
				<circle clip-path="url(#SVGID_4_)" fill="none" stroke="#FF3274" stroke-width="2" stroke-linecap="round" stroke-linejoin="round" cx="334.413" cy="278.182" r="3.519"/>
			
				<circle clip-path="url(#SVGID_4_)" fill="none" stroke="#FF3274" stroke-width="2" stroke-linecap="round" stroke-linejoin="round" cx="348.288" cy="278.182" r="3.519"/>
			
				<line clip-path="url(#SVGID_4_)" fill="none" stroke="#AADAF1" stroke-width="2" stroke-linecap="round" stroke-linejoin="round" x1="781.075" y1="569.139" x2="688.57" y2="852.959"/>
			
				<line clip-path="url(#SVGID_4_)" fill="none" stroke="#AADAF1" stroke-width="2" stroke-linecap="round" stroke-linejoin="round" x1="856.185" y1="569.139" x2="763.68" y2="852.959"/>
			
				<line clip-path="url(#SVGID_4_)" fill="none" stroke="#AADAF1" stroke-width="2" stroke-linecap="round" stroke-linejoin="round" x1="856.185" y1="569.139" x2="948.69" y2="852.959"/>
			
				<line clip-path="url(#SVGID_4_)" fill="none" stroke="#AADAF1" stroke-width="2" stroke-linecap="round" stroke-linejoin="round" x1="781.075" y1="569.139" x2="873.58" y2="852.959"/>
			<path clip-path="url(#SVGID_4_)" fill-rule="evenodd" clip-rule="evenodd" fill="#AADAF1" d="M620.896,384.358h143.37
				c6.181,0,11.189,5.009,11.189,11.189v118.362c0,6.18-5.009,11.189-11.189,11.189h-143.37c-6.18,0-11.189-5.009-11.189-11.189
				V395.547C609.706,389.367,614.716,384.358,620.896,384.358"/>
			<path clip-path="url(#SVGID_4_)" fill-rule="evenodd" clip-rule="evenodd" fill="#8DC5E0" d="M620.906,384.344
				c-6.181,0-11.188,5.008-11.188,11.187v118.376c0,6.179,5.008,11.187,11.188,11.187h7.187c-0.056-0.679-0.219-1.337-0.219-2.031
				V384.344H620.906z"/>
			<polygon clip-path="url(#SVGID_4_)" fill-rule="evenodd" clip-rule="evenodd" fill="#8DC5E0" points="672.698,490.234 
				721.104,490.234 748.214,551.893 698.094,551.893 			"/>
			
				<rect x="834.421" y="508.447" clip-path="url(#SVGID_4_)" fill-rule="evenodd" clip-rule="evenodd" fill="#8DC5E0" width="39.88" height="43.446"/>
			
				<circle clip-path="url(#SVGID_4_)" fill="none" stroke="#8DC5E0" stroke-width="2" stroke-linecap="round" stroke-linejoin="round" cx="873.955" cy="530.17" r="10.287"/>
			
				<line clip-path="url(#SVGID_4_)" fill="none" stroke="#AADAF1" stroke-width="2" stroke-linecap="round" stroke-linejoin="round" x1="834.421" y1="515.85" x2="873.956" y2="515.85"/>
			<g opacity="0.2496" clip-path="url(#SVGID_4_)" enable-background="new    ">
				<g>
					<defs>
						<rect id="SVGID_5_" x="299.365" y="269.957" width="293.061" height="173.549"/>
					</defs>
					<clipPath id="SVGID_6_">
						<use xlink:href="#SVGID_5_"  overflow="visible"/>
					</clipPath>
					<path clip-path="url(#SVGID_6_)" fill-rule="evenodd" clip-rule="evenodd" fill="#FFFFFF" d="M324.101,269.957H567.69
						c13.662,0,24.736,11.075,24.736,24.736V418.77c0,13.661-11.074,24.736-24.736,24.736H324.101
						c-13.661,0-24.736-11.075-24.736-24.736V294.693C299.365,281.032,310.44,269.957,324.101,269.957"/>
				</g>
			</g>
		</g>
	</g>
</g>
<g id="Capa_2">
</g>
</svg>
